<svg width="220" height="48" viewBox="0 0 220 48" fill="none" xmlns="http://www.w3.org/2000/svg" role="img" aria-labelledby="title desc">
  <title id="title">AlterU U Agent — Create a game</title>
  <desc id="desc">Create a game with AlterU Agent. The U watermark stays visible while the face, paired arms, thinking bubble, and message animate.</desc>
  <style>
    #u-mark,#u-face,#arm-left,#arm-right,#speech-motion,#thinking-dots,#message-copy { transform-box: view-box; }
    #u-mark { transform-origin: 21px 37.44px; animation: create-mark 6s cubic-bezier(.2,.8,.2,1) 1 both; }
    #u-face { transform-origin: 21px 38px; animation: create-face 6s cubic-bezier(.2,.8,.2,1) 1 both; }
    #arm-left { transform-origin: 17px 33.5px; animation: create-left-arm 6s ease-in-out 1 both; }
    #arm-right { transform-origin: 29px 33.5px; animation: create-right-arm 6s ease-in-out 1 both; }
    #speech-motion { transform-box: fill-box; transform-origin: center; animation: create-speech 6s cubic-bezier(.2,.8,.2,1) 1 both; }
    #bubble-surface,#bubble-clip-rect { animation: create-width 6s cubic-bezier(.2,.8,.2,1) 1 both; }
    #bubble-inset { animation: create-inset-width 6s cubic-bezier(.2,.8,.2,1) 1 both; }
    #thinking-dots { animation: create-dots 6s ease 1 both; }
    #thinking-dots circle { transform-box: fill-box; transform-origin: center; animation: dot-pulse .66s ease-in-out infinite alternate; }
    #thinking-dots circle:nth-child(2) { animation-delay: .12s; }
    #thinking-dots circle:nth-child(3) { animation-delay: .24s; }
    #message-copy { animation: create-copy 6s ease 1 both; }
    @keyframes create-mark {
      0%,8%,18%,82%,94%,100% { transform: translateY(0) scale(1); }
      11% { transform: translateY(1px) scale(1.035,.965); }
      14% { transform: translateY(-1.5px) scale(.97,1.055); }
      17% { transform: translateY(.4px) scale(1.016,.987); }
      85% { transform: translateY(-.6px) scale(.985,1.025); }
      89% { transform: translateY(1px) scale(1.035,.965); }
      92% { transform: translateY(-.4px) scale(.99,1.018); }
    }
    @keyframes create-face {
      0%,8% { opacity:0; transform:translateY(6px) scale(.68); }
      15% { opacity:1; transform:translateY(-2px) scale(1.08); }
      19%,82% { opacity:1; transform:translateY(0) scale(1); }
      90%,100% { opacity:0; transform:translateY(6px) scale(.72); }
    }
    @keyframes create-speech {
      0%,19% { opacity:0; transform:translateX(-4px) scale(.74); }
      23%,78% { opacity:1; transform:translateX(0) scale(1); }
      84%,100% { opacity:0; transform:translateX(-4px) scale(.74); }
    }
    @keyframes create-width {
      0%,28% { width:36px; }
      36%,70% { width:126px; }
      79%,100% { width:36px; }
    }
    @keyframes create-inset-width {
      0%,28% { width:35px; }
      36%,70% { width:125px; }
      79%,100% { width:35px; }
    }
    @keyframes create-dots { 0%,20% { opacity:0; } 23%,29% { opacity:1; } 35%,100% { opacity:0; } }
    @keyframes create-copy { 0%,32% { opacity:0; transform:translateX(4px); } 38%,70% { opacity:1; transform:translateX(0); } 76%,100% { opacity:0; transform:translateX(-2px); } }
    @keyframes create-left-arm { 0%,34% { opacity:0; transform:rotate(22deg) scaleX(.72); } 39%,61% { opacity:1; transform:rotate(8deg) scaleX(1); } 67%,100% { opacity:0; transform:rotate(22deg) scaleX(.72); } }
    @keyframes create-right-arm { 0%,34% { opacity:0; transform:rotate(18deg) scaleX(.72); } 39% { opacity:1; transform:rotate(-58deg) scaleX(1); } 45% { opacity:1; transform:rotate(16deg) scaleX(1); } 51% { opacity:1; transform:rotate(-50deg) scaleX(1); } 57%,61% { opacity:1; transform:rotate(-10deg) scaleX(1); } 67%,100% { opacity:0; transform:rotate(18deg) scaleX(.72); } }
    @keyframes dot-pulse { from { transform:translateY(1px) scale(.82); opacity:.5; } to { transform:translateY(-1px) scale(1); opacity:1; } }
    @media (prefers-reduced-motion: reduce) {
      #u-mark,#u-face,#arm-left,#arm-right,#speech-motion,#bubble-surface,#bubble-inset,#bubble-clip-rect,#thinking-dots,#message-copy,#thinking-dots circle { animation:none!important; }
      #u-face,#speech-motion,#message-copy { opacity:1; transform:none; }
      #arm-left,#arm-right,#thinking-dots { opacity:0; }
      #bubble-surface,#bubble-clip-rect { width:126px; }
      #bubble-inset { width:125px; }
    }
  </style>
  
  
  <g id="u-agent">
    <g id="u-mark">
      <path transform="translate(0 3) scale(.1640625)" d="M170.98 80.6864C175.826 80.3379 179.093 82.8464 180.922 87.1309C184.554 95.5742 179.373 98.9845 175.515 105.325C163.859 124.48 165.503 149.557 163.744 170.582C161.932 192.259 154.492 222.584 132.269 231.923C124.974 234.989 114.517 234.372 107.397 231.013C70.2537 212.926 93.1286 160.103 105.525 133.265C109.335 126.098 112.98 118.784 117.907 112.277C121.491 107.547 127.748 104.724 132.998 108.827C135.386 110.694 136.494 114.684 135.563 117.517C133.513 123.752 129.105 129.175 126.136 135.017C117.204 151.711 107.57 173.577 108.149 192.736C108.648 197.729 110.443 203.949 114.709 207.163C121.717 212.44 129.246 209.446 133.613 202.772C139.289 194.091 141.378 184.867 142.431 174.855C143.583 164.684 143.524 154.864 144.04 144.611C144.994 125.736 146.094 103.972 158.412 88.4443C161.509 84.5388 165.905 81.2324 170.98 80.6864Z" fill="#FFFFFF"/>
      <path transform="translate(0 3) scale(.1640625)" d="M86.9111 55.8511C87.5972 55.021 88.2531 54.3294 88.9727 53.5417C91.25 52.4699 98.6717 56.4898 104.848 54.7181C114.926 51.8253 124.216 44.6228 133.929 32.5885C137.352 28.3472 139.875 23.9207 143.53 19.8896C144.863 19.2069 144.275 19.3179 145.281 19.7403C145.408 20.3861 145.647 21.0867 144.974 22.1183C129.708 45.5149 124.762 63.0491 135.86 73.3957C137.561 74.9843 140.36 76.5377 141.933 78.4606L140.234 80.9976C139.451 81.6669 139.143 82.0962 138.465 81.9081C133.792 80.6128 129.85 79.3599 124.485 79.4064C114.232 79.4902 104.957 91.2197 95.9169 103.826C93.848 106.711 90.2527 112.469 87.8923 114.692C86.2512 115.246 86.8375 115.356 85.9333 114.646C86.1422 111.648 90.6859 105.295 92.5935 101.966C103.729 82.5318 103.185 67.3286 93.9942 61.1122C92.4408 60.0674 87.4627 58.0224 86.9111 55.8511Z" fill="#FFFFFF"/>
    </g>
    <g id="u-face">
      <rect x="12" y="25" width="18" height="15" rx="8" fill="#FFFFFF"/>
      <rect x="14" y="27" width="14" height="11" rx="6" fill="#F5B1C7"/>
      <ellipse cx="18.25" cy="32.5" rx="1.25" ry="1.75" fill="#171014"/>
      <ellipse cx="23.75" cy="32.5" rx="1.25" ry="1.75" fill="#171014"/>
    </g>
    <g id="arm-left">
      <rect x="7" y="32" width="10" height="3" rx="1.5" fill="#F5B1C7"/>
      <circle cx="7.5" cy="33.5" r="2.5" fill="#FFFFFF"/>
    </g>
    <g id="arm-right">
      <rect x="29" y="32" width="10" height="3" rx="1.5" fill="#F5B1C7"/>
      <circle cx="38.5" cy="33.5" r="2.5" fill="#FFFFFF"/>
    </g>
  </g>
  <g id="speech" transform="translate(51 6)">
    <g id="speech-motion">
      <g id="bubble-tail" transform="translate(-6 20) rotate(8 11 11)">
        <path d="M11 0V11H0Z" fill="#FFFFFF"/>
      </g>
      <rect id="bubble-surface" width="36" height="36" rx="18" fill="#FFFFFF"/>
      <rect id="bubble-inset" x=".5" y=".5" width="35" height="35" rx="17.5" fill="none" stroke="rgba(13,10,15,.08)"/>
      <clipPath id="bubble-clip"><rect id="bubble-clip-rect" width="36" height="36" rx="18"/></clipPath>
      <g clip-path="url(#bubble-clip)">
        <g id="thinking-dots" fill="#171014">
          <circle cx="12" cy="18" r="2"/><circle cx="18" cy="18" r="2"/><circle cx="24" cy="18" r="2"/>
        </g>
        <text id="message-copy" x="63" y="22" fill="#171014" font-family="-apple-system, BlinkMacSystemFont, 'SF Pro Text', 'PingFang SC', 'Helvetica Neue', Arial, sans-serif" font-size="11" font-weight="650" letter-spacing="-.1" text-anchor="middle">Create a game?</text>
      </g>
    </g>
  </g>
</svg>
